<svg version="1.1" id="Layer_1" xmlns="http://www.w3.org/2000/svg" xmlns:xlink="http://www.w3.org/1999/xlink" x="0px" y="0px"
	 width="100%" viewBox="0 0 288 288" enable-background="new 0 0 288 288" xml:space="preserve">
<path fill="#FFE57F" opacity="1.000000" stroke="none" 
	d="
M1.000000,217.000000 
	C1.000000,145.043762 1.000000,73.087509 1.000000,1.065635 
	C96.897858,1.065635 192.795776,1.065635 289.000000,1.065635 
	C289.000000,72.687271 289.000000,144.374969 288.632507,216.475723 
	C269.602386,211.446457 264.147186,198.287918 262.165283,183.881927 
	C262.394257,183.512970 262.455933,183.260803 262.517578,183.008636 
	C262.345886,183.339767 262.174164,183.670898 261.728455,183.914307 
	C258.948792,185.716583 256.327850,187.476059 253.982605,189.547668 
	C252.667664,190.709167 252.085403,193.238953 250.698288,193.688995 
	C243.761780,195.939438 245.689987,202.321991 243.671921,207.088593 
	C240.695374,210.729691 238.537659,214.499420 237.996338,219.438782 
	C238.444748,224.081940 238.894974,228.286148 239.513809,234.064682 
	C233.187927,232.360245 227.788925,230.691803 222.285095,229.512558 
	C219.524704,228.921158 215.069916,228.010773 213.994461,229.347275 
	C210.943344,233.139023 208.951492,237.901199 207.139359,242.515656 
	C206.380157,244.448898 207.500290,247.045044 207.084320,249.208755 
	C206.645111,251.493393 205.393585,253.621857 204.441589,255.954056 
	C205.081406,255.982727 205.916870,256.020172 207.051956,256.071045 
	C206.319931,257.818359 205.707962,259.279144 205.550110,259.655945 
	C207.137985,262.725128 208.281067,264.934540 209.637756,267.556854 
	C209.935806,267.622223 211.018021,267.859619 212.152084,268.108398 
	C209.421768,275.202515 216.271072,278.636169 217.696701,284.025574 
	C218.135040,285.682678 218.565781,287.341797 219.000000,289.000000 
	C170.312439,289.000000 121.624878,289.000000 72.610931,288.691162 
	C73.361351,286.916931 74.335045,285.360870 75.531631,284.000916 
	C83.542656,274.896179 86.448669,263.782745 86.325890,252.211273 
	C86.233459,243.498978 81.650772,235.868896 76.097618,229.096298 
	C73.873215,226.383438 71.783463,225.966003 68.393082,227.862198 
	C64.269051,230.168732 59.583679,231.616394 54.989761,232.889267 
	C51.695343,233.802063 49.828651,231.242584 51.028130,228.590500 
	C53.981121,222.061325 52.676083,215.867157 51.141567,209.420792 
	C48.095669,196.625275 39.718506,187.186813 27.348783,183.082642 
	C25.296162,202.630554 16.128450,214.431656 1.000000,217.000000 
M125.487122,266.388306 
	C124.266754,269.354767 123.046394,272.321228 121.826035,275.287659 
	C122.227165,275.742676 122.628296,276.197662 123.029427,276.652679 
	C126.124237,275.213409 129.219040,273.774170 132.302856,272.340027 
	C137.948273,276.927551 137.948273,276.927551 145.360550,272.235748 
	C151.628845,276.833710 151.628845,276.833710 158.486984,272.612335 
	C161.902618,273.999054 164.983734,275.249939 168.064850,276.500854 
	C168.317230,276.040558 168.569626,275.580231 168.822006,275.119934 
	C167.393097,271.782898 165.964203,268.445862 164.254791,264.377502 
	C161.009644,256.602325 157.910873,248.761795 154.477646,241.070587 
	C151.136017,233.584564 151.096375,226.375000 156.163071,219.259674 
	C158.318420,219.253235 160.479034,219.341278 162.628113,219.221909 
	C168.183060,218.913315 173.732925,218.513184 179.950378,218.024841 
	C184.574295,215.658234 185.737396,211.479874 186.522476,206.981583 
	C188.871826,209.275375 191.380310,211.430542 193.529984,213.898285 
	C196.183762,216.944717 198.784027,216.681732 200.756638,213.670746 
	C203.407898,209.623856 205.507629,205.215637 208.117752,200.194092 
	C208.188599,196.178207 208.259445,192.162338 208.891342,188.452972 
	C212.200836,190.620422 215.402298,192.990738 218.879837,194.842560 
	C220.057526,195.469681 222.682770,195.420593 223.374390,194.603622 
	C230.603439,186.064178 234.144409,176.272568 232.347031,164.126846 
	C231.925934,161.780762 231.504837,159.434662 231.795624,157.118179 
	C237.144485,159.726257 242.504929,162.310944 247.836411,164.954056 
	C249.942017,165.997925 251.734955,166.634338 253.189514,163.883087 
	C258.322845,154.173401 259.929260,144.298782 254.920288,133.292480 
	C253.595184,130.842361 252.084961,128.467438 251.042801,125.902374 
	C250.664474,124.971230 251.403961,123.585930 252.519699,122.665581 
	C257.192017,123.277916 261.864319,123.890244 266.724121,124.527145 
	C267.702148,115.928612 265.624054,108.758957 260.311920,102.833313 
	C255.908661,97.921501 250.935638,93.520470 245.866196,88.324471 
	C244.017609,86.245468 242.169006,84.166458 241.200836,82.060913 
	C244.901016,82.060913 248.601181,82.060913 252.933899,82.060913 
	C241.302292,68.120598 238.005219,64.981750 224.251068,65.259445 
	C227.973755,61.614712 230.916534,57.631035 230.133057,51.224045 
	C229.174896,48.859097 228.216736,46.494148 227.258575,44.129200 
	C226.576401,43.789761 225.894226,43.450325 225.212036,43.110886 
	C216.478119,52.412346 207.744186,61.713806 198.587341,70.568893 
	C199.185684,68.228279 199.633514,65.836632 200.406921,63.555367 
	C205.219070,49.361507 199.002548,33.082211 185.907608,25.808290 
	C185.907608,25.808290 185.653793,25.791681 185.653793,25.791681 
	C185.653793,25.791681 186.003799,25.997200 186.010376,26.841087 
	C186.247223,28.141146 186.600784,29.432301 186.700745,30.742800 
	C187.136047,36.448952 187.854736,42.423553 182.783463,46.574039 
	C177.452698,50.936882 172.051208,55.374752 166.119431,58.811119 
	C149.249619,68.584076 140.263718,84.738319 148.304535,103.284569 
	C150.628357,108.644485 153.572922,113.713425 158.358047,115.790634 
	C160.419617,110.078239 161.660172,104.570381 164.305557,99.849815 
	C167.411179,94.308044 175.182709,92.085609 179.987930,94.923409 
	C178.994293,99.120033 177.578262,103.277718 177.186386,107.529800 
	C176.992279,109.635849 178.118454,112.444962 179.608688,114.034859 
	C194.351028,129.762955 194.110519,148.283707 178.812729,163.642273 
	C172.125641,170.355927 165.573380,177.203873 158.355789,183.613403 
	C157.439941,181.130371 156.248444,178.710632 155.661072,176.152176 
	C154.041443,169.097534 152.457886,162.019775 151.307602,154.879059 
	C150.802139,151.741272 152.319077,150.202774 156.124207,150.832809 
	C159.474152,151.387466 163.037094,150.655777 166.505966,150.492172 
	C166.539948,150.063156 166.573929,149.634155 166.607910,149.205154 
	C164.523605,147.676910 162.439301,146.148682 160.399170,144.652832 
	C161.525726,143.670547 162.440460,142.872971 163.400558,142.035828 
	C147.601837,128.523605 129.754578,129.396072 126.105377,140.096634 
	C133.986206,139.080933 139.673859,141.468109 140.952469,150.827682 
	C140.942978,162.379303 135.856171,172.457794 132.543564,182.510193 
	C123.692444,174.116272 114.354683,166.665985 106.772568,157.726593 
	C96.526169,145.645981 98.334068,127.348083 109.486649,115.828476 
	C111.761383,113.478889 114.410370,111.572632 113.758827,107.454262 
	C112.068001,96.766647 107.913025,87.444336 100.141556,79.763390 
	C89.132950,68.883003 78.245247,57.880348 67.285088,46.950787 
	C66.287834,45.956318 65.139671,45.113174 63.421295,43.657269 
	C62.359261,46.447121 61.560314,48.545876 60.417744,51.343597 
	C59.217220,57.600327 63.021877,61.704124 65.795151,65.845253 
	C52.492077,64.008820 45.095257,72.475044 37.268597,82.020500 
	C42.064056,82.020500 46.000973,82.020500 49.768326,82.661736 
	C47.549610,85.121277 45.330894,87.580826 42.521370,90.355064 
	C37.898937,95.144974 32.945793,99.664246 28.744116,104.798485 
	C24.257353,110.281113 22.716366,116.785988 24.626339,124.254883 
	C30.358942,123.699577 35.801132,123.172401 40.953152,123.353889 
	C39.863747,125.518860 38.774338,127.683823 37.171429,130.306427 
	C31.101103,141.061203 31.498116,151.854736 36.730129,162.809311 
	C38.252434,165.996674 40.026039,166.412079 43.002502,164.845642 
	C48.301075,162.057129 53.720898,159.499023 59.083447,157.695786 
	C58.720798,160.472870 58.358150,163.249954 57.875000,166.935074 
	C57.152939,176.778778 60.010101,185.523544 65.901352,193.371246 
	C67.759048,195.845886 69.516251,196.899048 72.406677,194.535217 
	C75.338470,192.137558 78.661667,190.218506 81.933632,188.982925 
	C82.256203,193.014496 82.578781,197.046051 82.929474,201.821945 
	C84.477028,208.200485 88.281609,212.936066 93.719070,216.830185 
	C97.355988,213.302719 100.888435,209.876587 104.420883,206.450439 
	C104.785439,206.743607 105.149986,207.036789 105.514542,207.329956 
	C105.420006,208.548935 105.325478,209.767899 105.260460,211.678619 
	C107.167877,213.809845 109.075294,215.941071 111.648033,218.584595 
	C119.444206,218.807449 127.240372,219.030304 135.457291,219.800842 
	C139.238174,226.745300 139.059204,233.760971 136.066803,240.942352 
	C132.618607,249.217590 129.344513,257.565399 125.487122,266.388306 
M114.906776,41.561783 
	C108.810005,38.314350 105.499451,39.867970 104.977844,46.059868 
	C104.560623,51.012478 107.398994,54.179405 110.714470,57.061024 
	C114.010010,59.925308 117.475006,62.594627 121.054024,65.502449 
	C121.620232,64.966156 123.591461,63.960194 124.061600,62.478077 
	C125.104263,59.191090 126.951233,54.811478 125.643967,52.426605 
	C123.396675,48.326847 118.990982,45.410210 114.906776,41.561783 
M171.734802,233.254181 
	C173.884613,232.644882 176.034424,232.035568 178.171555,231.429855 
	C174.143387,223.442184 168.358414,224.969940 160.167191,236.854156 
	C168.112564,247.391052 172.557861,249.251450 176.256577,243.587738 
	C169.589493,241.709091 168.509064,239.638229 171.734802,233.254181 
M126.066521,241.611145 
	C127.977371,240.288437 129.888229,238.965729 132.618927,237.075500 
	C128.928238,233.833542 126.620247,231.926758 124.449112,229.875153 
	C119.118149,224.837738 116.035889,225.262665 111.977676,231.865921 
	C115.913452,232.021637 120.246613,231.933441 120.843796,237.053436 
	C121.397430,241.800003 117.621567,242.880920 113.773422,243.549179 
	C118.224899,248.234787 119.655266,248.024460 126.066521,241.611145 
M205.493210,264.538147 
	C205.493210,264.538147 205.468384,264.481842 205.493210,264.538147 
z"/>
<path fill="#FFCE80" opacity="1.000000" stroke="none" 
	d="
M1.000000,217.468658 
	C16.128450,214.431656 25.296162,202.630554 27.348783,183.082642 
	C39.718506,187.186813 48.095669,196.625275 51.141567,209.420792 
	C52.676083,215.867157 53.981121,222.061325 51.028130,228.590500 
	C49.828651,231.242584 51.695343,233.802063 54.989761,232.889267 
	C59.583679,231.616394 64.269051,230.168732 68.393082,227.862198 
	C71.783463,225.966003 73.873215,226.383438 76.097618,229.096298 
	C81.650772,235.868896 86.233459,243.498978 86.325890,252.211273 
	C86.448669,263.782745 83.542656,274.896179 75.531631,284.000916 
	C74.335045,285.360870 73.361351,286.916931 72.142273,288.691162 
	C48.405960,289.000000 24.811924,289.000000 1.000000,289.000000 
	C1.000000,265.312897 1.000000,241.625107 1.000000,217.468658 
M48.459946,207.492111 
	C48.459946,207.492111 48.519352,207.465256 48.459946,207.492111 
z"/>
<path fill="#FFCE80" opacity="1.000000" stroke="none" 
	d="
M261.997955,183.998718 
	C264.147186,198.287918 269.602386,211.446457 288.632507,216.944382 
	C289.000000,240.925827 289.000000,264.851654 289.000000,289.000000 
	C265.979584,289.000000 242.958450,289.000000 219.468658,289.000000 
	C218.565781,287.341797 218.135040,285.682678 217.696701,284.025574 
	C216.271072,278.636169 209.421768,275.202515 212.152084,268.108398 
	C211.018021,267.859619 209.935806,267.622223 209.637756,267.556854 
	C208.281067,264.934540 207.137985,262.725128 205.550110,259.655945 
	C205.707962,259.279144 206.319931,257.818359 207.051956,256.071045 
	C205.916870,256.020172 205.081406,255.982727 204.441589,255.954056 
	C205.393585,253.621857 206.645111,251.493393 207.084320,249.208755 
	C207.500290,247.045044 206.380157,244.448898 207.139359,242.515656 
	C208.951492,237.901199 210.943344,233.139023 213.994461,229.347275 
	C215.069916,228.010773 219.524704,228.921158 222.285095,229.512558 
	C227.788925,230.691803 233.187927,232.360245 239.513809,234.064682 
	C238.894974,228.286148 238.444748,224.081940 238.386688,219.437134 
	C245.208527,217.971634 246.493103,216.045761 243.589859,210.833313 
	C246.259705,210.136368 248.784195,209.477371 251.308685,208.818359 
	C251.346558,208.518478 251.384415,208.218597 251.422287,207.918716 
	C249.283264,207.611694 247.144257,207.304672 244.753143,206.994995 
	C244.332977,206.992493 244.164917,206.992676 243.998047,206.996399 
	C243.999252,206.999969 244.007721,206.999115 244.007721,206.999115 
	C245.689987,202.321991 243.761780,195.939438 250.698288,193.688995 
	C252.085403,193.238953 252.667664,190.709167 253.982605,189.547668 
	C256.327850,187.476059 258.948792,185.716583 261.727234,183.913300 
	C262.000000,184.000000 261.997955,183.998718 261.997955,183.998718 
M208.505173,245.458466 
	C208.505173,245.458466 208.532074,245.516815 208.505173,245.458466 
z"/>
<path fill="#FFB200" opacity="1.000000" stroke="none" 
	d="
M81.813431,188.089844 
	C78.661667,190.218506 75.338470,192.137558 72.406677,194.535217 
	C69.516251,196.899048 67.759048,195.845886 65.901352,193.371246 
	C60.010101,185.523544 57.152939,176.778778 58.218300,166.243958 
	C60.040718,165.012344 61.632629,164.661911 62.963734,163.871979 
	C64.054718,163.224548 65.424385,162.166428 65.629585,161.091644 
	C66.044655,158.917618 65.753403,156.608749 65.753403,154.036850 
	C63.457352,155.004318 61.273682,155.924438 59.090012,156.844574 
	C53.720898,159.499023 48.301075,162.057129 43.002502,164.845642 
	C40.026039,166.412079 38.252434,165.996674 36.730129,162.809311 
	C31.498116,151.854736 31.101103,141.061203 37.691986,130.279846 
	C38.682728,131.221756 39.152912,132.190262 39.567822,133.044907 
	C44.291412,128.611710 48.876450,124.308563 53.461487,120.005417 
	C53.147766,119.423561 52.834049,118.841705 52.520329,118.259850 
	C48.761326,119.721642 45.002327,121.183434 41.243324,122.645226 
	C35.801132,123.172401 30.358942,123.699577 24.626339,124.254883 
	C22.716366,116.785988 24.257353,110.281113 28.744116,104.798485 
	C32.945793,99.664246 37.898937,95.144974 43.222343,90.185654 
	C52.161938,89.383705 53.602142,88.420853 54.601685,82.348488 
	C53.013454,82.236794 51.475670,82.128647 49.937889,82.020500 
	C46.000973,82.020500 42.064056,82.020500 37.268597,82.020500 
	C45.095257,72.475044 52.492077,64.008820 66.548203,66.027023 
	C75.450203,74.287025 83.790131,82.185570 91.648132,90.537537 
	C94.534073,93.604881 96.470146,97.643684 98.482872,101.428993 
	C99.960373,104.207733 99.592323,106.660454 97.204514,109.442749 
	C82.898254,126.112587 83.265495,152.259094 97.917152,168.510986 
	C103.496941,174.700195 109.426971,180.580582 115.327995,186.470856 
	C119.433159,190.568542 123.761032,194.443100 128.171371,198.733948 
	C130.581055,205.784760 132.808807,212.518967 135.036545,219.253159 
	C127.240372,219.030304 119.444206,218.807449 111.322800,217.926376 
	C111.354485,213.082016 108.934517,211.445221 105.230942,210.986862 
	C105.325478,209.767899 105.420006,208.548935 105.514542,207.329956 
	C105.149986,207.036789 104.785439,206.743607 104.420883,206.450439 
	C100.888435,209.876587 97.355988,213.302719 93.719070,216.830185 
	C88.281609,212.936066 84.477028,208.200485 83.159866,201.227356 
	C84.220695,199.221420 85.230423,197.880737 85.823532,196.375870 
	C86.279640,195.218597 86.211403,193.854691 86.376328,192.582672 
	C87.587151,193.353897 88.797981,194.125137 91.294823,195.715500 
	C91.349625,192.239655 92.509842,188.637268 91.205696,186.661667 
	C88.567467,182.665070 85.507736,186.465775 82.704193,187.665405 
	C82.402061,187.794693 82.110107,187.947784 81.813431,188.089844 
M69.332802,154.871979 
	C69.398903,154.834900 69.465004,154.797836 69.332802,154.871979 
z"/>
<path fill="#FFB200" opacity="1.000000" stroke="none" 
	d="
M232.453674,164.944122 
	C234.144409,176.272568 230.603439,186.064178 223.374390,194.603622 
	C222.682770,195.420593 220.057526,195.469681 218.879837,194.842560 
	C215.402298,192.990738 212.200836,190.620422 208.276978,188.132050 
	C204.352951,184.778137 201.697067,186.603592 199.989899,189.441696 
	C197.980896,192.781616 200.232437,195.299438 202.813049,197.328125 
	C204.438141,198.605652 206.163651,199.755432 207.844116,200.962509 
	C205.507629,205.215637 203.407898,209.623856 200.756638,213.670746 
	C198.784027,216.681732 196.183762,216.944717 193.529984,213.898285 
	C191.380310,211.430542 188.871826,209.275375 185.923645,206.783936 
	C180.063843,208.530746 177.515671,212.297180 177.985641,217.576675 
	C178.005920,217.804413 178.833374,217.960266 179.284821,218.149612 
	C173.732925,218.513184 168.183060,218.913315 162.628113,219.221909 
	C160.479034,219.341278 158.318420,219.253235 155.772568,218.889633 
	C157.379761,213.414688 159.261002,208.259735 161.424744,203.226212 
	C162.491699,200.744171 163.673279,198.094086 165.503204,196.194595 
	C173.812866,187.568924 182.532074,179.336563 190.807144,170.679016 
	C207.130905,153.600754 208.465622,128.670883 193.903641,110.122223 
	C191.078827,106.524055 190.667633,103.470535 192.688843,99.777161 
	C194.041687,97.305115 195.196350,94.555946 197.115936,92.591621 
	C205.945343,83.556412 215.012497,74.753532 223.994370,65.867310 
	C238.005219,64.981750 241.302292,68.120598 252.933899,82.060913 
	C248.601181,82.060913 244.901016,82.060913 240.392059,82.087891 
	C238.478775,82.640495 237.374283,83.166107 236.205368,83.722389 
	C238.308914,88.686554 241.404846,90.551285 246.215027,88.893158 
	C250.935638,93.520470 255.908661,97.921501 260.311920,102.833313 
	C265.624054,108.758957 267.702148,115.928612 266.724121,124.527145 
	C261.864319,123.890244 257.192017,123.277916 251.779694,122.430664 
	C244.841690,119.957054 238.643677,117.718361 232.014175,115.323814 
	C233.328552,117.382576 234.163971,118.691132 234.834961,120.117691 
	C234.609039,120.485512 234.547546,120.735329 234.486053,120.985146 
	C234.657578,120.656860 234.829086,120.328583 235.307648,120.139893 
	C236.530319,121.511299 237.851959,122.616371 238.283630,123.999252 
	C239.464996,127.783852 241.358002,128.815796 244.153397,126.611397 
	C246.623672,129.297226 248.998779,132.103668 251.673325,134.587692 
	C252.174149,135.052856 253.873291,134.227798 255.019440,133.998138 
	C259.929260,144.298782 258.322845,154.173401 253.189514,163.883087 
	C251.734955,166.634338 249.942017,165.997925 247.836411,164.954056 
	C242.504929,162.310944 237.144485,159.726257 231.207199,156.836899 
	C229.082321,156.032837 227.545853,155.510056 225.959641,154.888504 
	C225.909882,154.789719 225.634567,154.782425 225.634567,154.782425 
	C225.634567,154.782425 225.986496,155.010147 225.989563,155.389679 
	C228.146317,158.827515 230.300003,161.885818 232.453674,164.944122 
M225.502396,160.660461 
	C224.729187,160.524475 223.955978,160.388504 223.182785,160.252518 
	C223.194305,160.654999 223.205841,161.057465 223.217361,161.459946 
	C224.059402,161.355042 224.901443,161.250122 225.502396,160.660461 
M220.359695,156.010117 
	C220.812347,155.907700 221.264984,155.805298 221.717636,155.702881 
	C221.515076,155.343460 221.312531,154.984039 221.109970,154.624619 
	C220.819168,154.915100 220.528381,155.205582 220.359695,156.010117 
z"/>
<path fill="#FF3E01" opacity="1.000000" stroke="none" 
	d="
M224.122711,65.563377 
	C215.012497,74.753532 205.945343,83.556412 197.115936,92.591621 
	C195.196350,94.555946 194.041687,97.305115 192.688843,99.777161 
	C190.667633,103.470535 191.078827,106.524055 193.903641,110.122223 
	C208.465622,128.670883 207.130905,153.600754 190.807144,170.679016 
	C182.532074,179.336563 173.812866,187.568924 165.503204,196.194595 
	C163.673279,198.094086 162.491699,200.744171 161.424744,203.226212 
	C159.261002,208.259735 157.379761,213.414688 155.320587,218.877655 
	C151.096375,226.375000 151.136017,233.584564 154.477646,241.070587 
	C157.910873,248.761795 161.009644,256.602325 164.008698,264.949829 
	C152.843170,265.688721 141.923752,265.855316 131.039276,265.653992 
	C134.276718,257.445679 137.130020,249.438202 140.778442,241.811081 
	C144.542984,233.941162 143.940094,226.606781 140.523621,218.877411 
	C137.333176,211.659393 132.570099,204.602600 134.103027,196.231415 
	C135.230286,190.075424 137.572906,184.140991 139.389343,178.112473 
	C141.495010,171.124161 143.839951,164.197571 145.638474,157.131546 
	C146.531418,153.623322 146.509796,149.813934 141.047012,149.946198 
	C139.673859,141.468109 133.986206,139.080933 126.105377,140.096634 
	C129.754578,129.396072 147.601837,128.523605 163.400558,142.035828 
	C162.440460,142.872971 161.525726,143.670547 160.399170,144.652832 
	C162.439301,146.148682 164.523605,147.676910 166.607910,149.205154 
	C166.573929,149.634155 166.539948,150.063156 166.505966,150.492172 
	C163.037094,150.655777 159.474152,151.387466 156.124207,150.832809 
	C152.319077,150.202774 150.802139,151.741272 151.307602,154.879059 
	C152.457886,162.019775 154.041443,169.097534 155.661072,176.152176 
	C156.248444,178.710632 157.439941,181.130371 158.639023,184.190674 
	C159.452972,186.739914 159.983688,188.711868 160.777451,191.661148 
	C168.931412,183.492615 176.303589,176.105408 183.677872,168.720306 
	C200.992416,151.380356 201.832779,129.537201 186.129608,110.572395 
	C184.874023,109.056007 184.168121,106.305420 184.525635,104.372292 
	C185.816422,97.392929 188.923538,91.268082 194.122330,86.177750 
	C204.696884,75.823799 215.057556,65.251648 225.584610,54.848610 
	C226.811096,53.636574 228.531143,52.923973 230.022354,51.979828 
	C230.916534,57.631035 227.973755,61.614712 224.122711,65.563377 
z"/>
<path fill="#FFCE80" opacity="1.000000" stroke="none" 
	d="
M180.133835,94.197098 
	C175.182709,92.085609 167.411179,94.308044 164.305557,99.849815 
	C161.660172,104.570381 160.419617,110.078239 158.358047,115.790634 
	C153.572922,113.713425 150.628357,108.644485 148.304535,103.284569 
	C140.263718,84.738319 149.249619,68.584076 166.119431,58.811119 
	C172.051208,55.374752 177.452698,50.936882 182.783463,46.574039 
	C187.854736,42.423553 187.136047,36.448952 186.700745,30.742800 
	C186.600784,29.432301 186.247223,28.141146 186.005188,26.420544 
	C186.000000,26.000000 185.997269,26.003721 185.997269,26.003721 
	C199.002548,33.082211 205.219070,49.361507 200.406921,63.555367 
	C199.633514,65.836632 199.185684,68.228279 198.645844,71.086349 
	C192.514175,79.134903 186.324005,86.666000 180.133835,94.197098 
z"/>
<path fill="#FF6F40" opacity="1.000000" stroke="none" 
	d="
M140.999741,150.386932 
	C146.509796,149.813934 146.531418,153.623322 145.638474,157.131546 
	C143.839951,164.197571 141.495010,171.124161 139.389343,178.112473 
	C137.572906,184.140991 135.230286,190.075424 134.103027,196.231415 
	C132.570099,204.602600 137.333176,211.659393 140.523621,218.877411 
	C143.940094,226.606781 144.542984,233.941162 140.778442,241.811081 
	C137.130020,249.438202 134.276718,257.445679 130.621246,265.668152 
	C128.777130,265.994019 127.385971,265.937836 125.994812,265.881683 
	C129.344513,257.565399 132.618607,249.217590 136.066803,240.942352 
	C139.059204,233.760971 139.238174,226.745300 135.246918,219.527008 
	C132.808807,212.518967 130.581055,205.784760 128.252457,198.308472 
	C129.922867,193.160675 128.757889,189.837753 125.216599,186.561218 
	C118.266602,180.130829 111.710861,173.272034 105.037819,166.545044 
	C90.626251,152.016953 88.493896,130.046051 101.759865,114.594345 
	C108.093903,107.216690 105.649895,101.552055 102.855125,94.962570 
	C101.709312,92.260979 99.954483,89.622749 97.888840,87.538231 
	C85.608528,75.145714 73.156029,62.923836 60.761368,50.644630 
	C61.560314,48.545876 62.359261,46.447121 63.421295,43.657269 
	C65.139671,45.113174 66.287834,45.956318 67.285088,46.950787 
	C78.245247,57.880348 89.132950,68.883003 100.141556,79.763390 
	C107.913025,87.444336 112.068001,96.766647 113.758827,107.454262 
	C114.410370,111.572632 111.761383,113.478889 109.486649,115.828476 
	C98.334068,127.348083 96.526169,145.645981 106.772568,157.726593 
	C114.354683,166.665985 123.692444,174.116272 132.543564,182.510193 
	C135.856171,172.457794 140.942978,162.379303 140.999741,150.386932 
z"/>
<path fill="#FF6D3F" opacity="1.000000" stroke="none" 
	d="
M180.060883,94.560249 
	C186.324005,86.666000 192.514175,79.134903 198.857300,71.309540 
	C207.744186,61.713806 216.478119,52.412346 225.212036,43.110886 
	C225.894226,43.450325 226.576401,43.789761 227.258575,44.129200 
	C228.216736,46.494148 229.174896,48.859097 230.077698,51.601936 
	C228.531143,52.923973 226.811096,53.636574 225.584610,54.848610 
	C215.057556,65.251648 204.696884,75.823799 194.122330,86.177750 
	C188.923538,91.268082 185.816422,97.392929 184.525635,104.372292 
	C184.168121,106.305420 184.874023,109.056007 186.129608,110.572395 
	C201.832779,129.537201 200.992416,151.380356 183.677872,168.720306 
	C176.303589,176.105408 168.931412,183.492615 160.777451,191.661148 
	C159.983688,188.711868 159.452972,186.739914 158.941071,184.379395 
	C165.573380,177.203873 172.125641,170.355927 178.812729,163.642273 
	C194.110519,148.283707 194.351028,129.762955 179.608688,114.034859 
	C178.118454,112.444962 176.992279,109.635849 177.186386,107.529800 
	C177.578262,103.277718 178.994293,99.120033 180.060883,94.560249 
z"/>
<path fill="#FF3D01" opacity="1.000000" stroke="none" 
	d="
M60.589558,50.994114 
	C73.156029,62.923836 85.608528,75.145714 97.888840,87.538231 
	C99.954483,89.622749 101.709312,92.260979 102.855125,94.962570 
	C105.649895,101.552055 108.093903,107.216690 101.759865,114.594345 
	C88.493896,130.046051 90.626251,152.016953 105.037819,166.545044 
	C111.710861,173.272034 118.266602,180.130829 125.216599,186.561218 
	C128.757889,189.837753 129.922867,193.160675 128.070511,197.991852 
	C123.761032,194.443100 119.433159,190.568542 115.327995,186.470856 
	C109.426971,180.580582 103.496941,174.700195 97.917152,168.510986 
	C83.265495,152.259094 82.898254,126.112587 97.204514,109.442749 
	C99.592323,106.660454 99.960373,104.207733 98.482872,101.428993 
	C96.470146,97.643684 94.534073,93.604881 91.648132,90.537537 
	C83.790131,82.185570 75.450203,74.287025 66.984955,66.042313 
	C63.021877,61.704124 59.217220,57.600327 60.589558,50.994114 
z"/>
<path fill="#FFB303" opacity="1.000000" stroke="none" 
	d="
M125.740967,266.135010 
	C127.385971,265.937836 128.777130,265.994019 130.586304,266.036041 
	C141.923752,265.855316 152.843170,265.688721 164.148941,265.315491 
	C165.964203,268.445862 167.393097,271.782898 168.822006,275.119934 
	C168.569626,275.580231 168.317230,276.040558 168.064850,276.500854 
	C164.983734,275.249939 161.902618,273.999054 158.486984,272.612335 
	C151.628845,276.833710 151.628845,276.833710 145.360550,272.235748 
	C137.948273,276.927551 137.948273,276.927551 132.302856,272.340027 
	C129.219040,273.774170 126.124237,275.213409 123.029427,276.652679 
	C122.628296,276.197662 122.227165,275.742676 121.826035,275.287659 
	C123.046394,272.321228 124.266754,269.354767 125.740967,266.135010 
z"/>
<path fill="#FFD180" opacity="1.000000" stroke="none" 
	d="
M115.199036,41.779369 
	C118.990982,45.410210 123.396675,48.326847 125.643967,52.426605 
	C126.951233,54.811478 125.104263,59.191090 124.061600,62.478077 
	C123.591461,63.960194 121.620232,64.966156 121.054024,65.502449 
	C117.475006,62.594627 114.010010,59.925308 110.714470,57.061024 
	C107.398994,54.179405 104.560623,51.012478 104.977844,46.059868 
	C105.499451,39.867970 108.810005,38.314350 115.199036,41.779369 
z"/>
<path fill="#FFB405" opacity="1.000000" stroke="none" 
	d="
M171.448212,233.538193 
	C168.509064,239.638229 169.589493,241.709091 176.256577,243.587738 
	C172.557861,249.251450 168.112564,247.391052 160.167191,236.854156 
	C168.358414,224.969940 174.143387,223.442184 178.171555,231.429855 
	C176.034424,232.035568 173.884613,232.644882 171.448212,233.538193 
z"/>
<path fill="#FFB405" opacity="1.000000" stroke="none" 
	d="
M125.815643,241.861465 
	C119.655266,248.024460 118.224899,248.234787 113.773422,243.549179 
	C117.621567,242.880920 121.397430,241.800003 120.843796,237.053436 
	C120.246613,231.933441 115.913452,232.021637 111.977676,231.865921 
	C116.035889,225.262665 119.118149,224.837738 124.449112,229.875153 
	C126.620247,231.926758 128.928238,233.833542 132.618927,237.075500 
	C129.888229,238.965729 127.977371,240.288437 125.815643,241.861465 
z"/>
<path fill="#FFA201" opacity="1.000000" stroke="none" 
	d="
M234.999390,119.999695 
	C234.163971,118.691132 233.328552,117.382576 232.014175,115.323814 
	C238.643677,117.718361 244.841690,119.957054 251.336563,122.301788 
	C251.403961,123.585930 250.664474,124.971230 251.042801,125.902374 
	C252.084961,128.467438 253.595184,130.842361 254.969864,133.645309 
	C253.873291,134.227798 252.174149,135.052856 251.673325,134.587692 
	C248.998779,132.103668 246.623672,129.297226 244.153397,126.611397 
	C241.358002,128.815796 239.464996,127.783852 238.283630,123.999252 
	C237.851959,122.616371 236.530319,121.511299 235.307343,120.139740 
	C235.000000,120.000000 234.999390,119.999695 234.999390,119.999695 
z"/>
<path fill="#FFA101" opacity="1.000000" stroke="none" 
	d="
M81.873535,188.536377 
	C82.110107,187.947784 82.402061,187.794693 82.704193,187.665405 
	C85.507736,186.465775 88.567467,182.665070 91.205696,186.661667 
	C92.509842,188.637268 91.349625,192.239655 91.294823,195.715500 
	C88.797981,194.125137 87.587151,193.353897 86.376328,192.582672 
	C86.211403,193.854691 86.279640,195.218597 85.823532,196.375870 
	C85.230423,197.880737 84.220695,199.221420 83.145813,200.855194 
	C82.578781,197.046051 82.256203,193.014496 81.873535,188.536377 
z"/>
<path fill="#FFA201" opacity="1.000000" stroke="none" 
	d="
M207.980927,200.578308 
	C206.163651,199.755432 204.438141,198.605652 202.813049,197.328125 
	C200.232437,195.299438 197.980896,192.781616 199.989899,189.441696 
	C201.697067,186.603592 204.352951,184.778137 207.996429,187.978790 
	C208.259445,192.162338 208.188599,196.178207 207.980927,200.578308 
z"/>
<path fill="#FF9E02" opacity="1.000000" stroke="none" 
	d="
M41.098236,122.999557 
	C45.002327,121.183434 48.761326,119.721642 52.520329,118.259850 
	C52.834049,118.841705 53.147766,119.423561 53.461487,120.005417 
	C48.876450,124.308563 44.291412,128.611710 39.567822,133.044907 
	C39.152912,132.190262 38.682728,131.221756 37.948738,130.051025 
	C38.774338,127.683823 39.863747,125.518860 41.098236,122.999557 
z"/>
<path fill="#FFD580" opacity="1.000000" stroke="none" 
	d="
M245.005234,206.997650 
	C247.144257,207.304672 249.283264,207.611694 251.422287,207.918716 
	C251.384415,208.218597 251.346558,208.518478 251.308685,208.818359 
	C248.784195,209.477371 246.259705,210.136368 243.589859,210.833313 
	C246.493103,216.045761 245.208527,217.971634 238.388519,218.998169 
	C238.537659,214.499420 240.695374,210.729691 243.671921,207.088593 
	C244.007721,206.999115 243.999252,206.999969 244.099731,207.128784 
	C244.200195,207.257614 244.650894,207.327805 244.650894,207.327805 
	C244.650894,207.327805 245.005234,206.997635 245.005234,206.997650 
z"/>
<path fill="#FF9F01" opacity="1.000000" stroke="none" 
	d="
M59.086731,157.270172 
	C61.273682,155.924438 63.457352,155.004318 65.753403,154.036850 
	C65.753403,156.608749 66.044655,158.917618 65.629585,161.091644 
	C65.424385,162.166428 64.054718,163.224548 62.963734,163.871979 
	C61.632629,164.661911 60.040718,165.012344 58.278553,165.789948 
	C58.358150,163.249954 58.720798,160.472870 59.086731,157.270172 
M62.450169,160.245071 
	C62.185204,160.059448 61.920238,159.873840 61.655270,159.688217 
	C61.825115,159.963669 61.994961,160.239105 62.450169,160.245071 
z"/>
<path fill="#FFA102" opacity="1.000000" stroke="none" 
	d="
M179.617599,218.087219 
	C178.833374,217.960266 178.005920,217.804413 177.985641,217.576675 
	C177.515671,212.297180 180.063843,208.530746 185.588211,206.669342 
	C185.737396,211.479874 184.574295,215.658234 179.617599,218.087219 
z"/>
<path fill="#FFA907" opacity="1.000000" stroke="none" 
	d="
M49.853107,82.341118 
	C51.475670,82.128647 53.013454,82.236794 54.601685,82.348488 
	C53.602142,88.420853 52.161938,89.383705 43.517746,90.028313 
	C45.330894,87.580826 47.549610,85.121277 49.853107,82.341118 
z"/>
<path fill="#FFA600" opacity="1.000000" stroke="none" 
	d="
M246.040619,88.608810 
	C241.404846,90.551285 238.308914,88.686554 236.205368,83.722389 
	C237.374283,83.166107 238.478775,82.640495 239.951843,82.101166 
	C242.169006,84.166458 244.017609,86.245468 246.040619,88.608810 
z"/>
<path fill="#FFA000" opacity="1.000000" stroke="none" 
	d="
M232.400360,164.535492 
	C230.300003,161.885818 228.146317,158.827515 225.996155,155.384674 
	C225.999664,155.000122 226.009399,154.987289 226.009399,154.987289 
	C227.545853,155.510056 229.082321,156.032837 230.851257,156.822098 
	C231.504837,159.434662 231.925934,161.780762 232.400360,164.535492 
z"/>
<path fill="#FFA407" opacity="1.000000" stroke="none" 
	d="
M105.245697,211.332733 
	C108.934517,211.445221 111.354485,213.082016 110.990143,217.670227 
	C109.075294,215.941071 107.167877,213.809845 105.245697,211.332733 
z"/>
<path fill="#FFCE80" opacity="1.000000" stroke="none" 
	d="
M262.001221,184.001007 
	C262.174164,183.670898 262.345886,183.339767 262.517578,183.008636 
	C262.455933,183.260803 262.394257,183.512970 262.165283,183.881927 
	C261.997955,183.998718 262.000000,184.000000 262.001221,184.001007 
z"/>
<path fill="#FFCE80" opacity="1.000000" stroke="none" 
	d="
M205.480804,264.510010 
	C205.468384,264.481842 205.493210,264.538147 205.480804,264.510010 
z"/>
<path fill="#FFCE80" opacity="1.000000" stroke="none" 
	d="
M186.001892,25.998600 
	C186.003799,25.997200 185.653793,25.791681 185.653793,25.791681 
	C185.653793,25.791681 185.907608,25.808290 185.952438,25.906006 
	C185.997269,26.003721 186.000000,26.000000 186.001892,25.998600 
z"/>
<path fill="#FFE57F" opacity="1.000000" stroke="none" 
	d="
M48.489647,207.478683 
	C48.519352,207.465256 48.459946,207.492111 48.489647,207.478683 
z"/>
<path fill="#FFE57F" opacity="1.000000" stroke="none" 
	d="
M244.753143,206.994980 
	C245.005234,206.997635 244.650894,207.327805 244.650894,207.327805 
	C244.650894,207.327805 244.200195,207.257614 244.098511,207.125229 
	C244.164917,206.992676 244.332977,206.992493 244.753143,206.994980 
z"/>
<path fill="#FFE57F" opacity="1.000000" stroke="none" 
	d="
M208.518616,245.487640 
	C208.532074,245.516815 208.505173,245.458466 208.518616,245.487640 
z"/>
<path fill="#FF9F01" opacity="1.000000" stroke="none" 
	d="
M69.431961,154.816376 
	C69.465004,154.797836 69.398903,154.834900 69.431961,154.816376 
z"/>
<path fill="#FFA000" opacity="1.000000" stroke="none" 
	d="
M225.622940,160.902832 
	C224.901443,161.250122 224.059402,161.355042 223.217361,161.459946 
	C223.205841,161.057465 223.194305,160.654999 223.182785,160.252518 
	C223.955978,160.388504 224.729187,160.524475 225.622940,160.902832 
z"/>
<path fill="#FFA000" opacity="1.000000" stroke="none" 
	d="
M220.298645,155.753098 
	C220.528381,155.205582 220.819168,154.915100 221.109970,154.624619 
	C221.312531,154.984039 221.515076,155.343460 221.717636,155.702881 
	C221.264984,155.805298 220.812347,155.907700 220.298645,155.753098 
z"/>
<path fill="#FFA201" opacity="1.000000" stroke="none" 
	d="
M235.000305,120.000153 
	C234.829086,120.328583 234.657578,120.656860 234.486053,120.985146 
	C234.547546,120.735329 234.609039,120.485512 234.834961,120.117699 
	C234.999390,119.999695 235.000000,120.000000 235.000305,120.000153 
z"/>
<path fill="#FFA000" opacity="1.000000" stroke="none" 
	d="
M225.993073,155.005127 
	C225.986496,155.010147 225.634567,154.782425 225.634567,154.782425 
	C225.634567,154.782425 225.909882,154.789719 225.959641,154.888504 
	C226.009399,154.987289 225.999664,155.000122 225.993073,155.005127 
z"/>
<path fill="#FFB200" opacity="1.000000" stroke="none" 
	d="
M62.307487,160.379822 
	C61.994961,160.239105 61.825115,159.963669 61.655270,159.688217 
	C61.920238,159.873840 62.185204,160.059448 62.307487,160.379822 
z"/>
</svg>